HIERARCHY
ROOT Hips
{
 OFFSET 0.000000 0.000000 0.000000
 CHANNELS 6 Xposition Yposition Zposition Yrotation Xrotation Zrotation
 JOINT Chest
 {
  OFFSET 0.000000 9.910571 -0.011835
  CHANNELS 3 Yrotation Xrotation Zrotation
  JOINT Chest2
  {
   OFFSET 0.000000 10.789473 0.021497
   CHANNELS 3 Yrotation Xrotation Zrotation
   JOINT Chest3
   {
    OFFSET 0.000000 9.748205 0.000000
    CHANNELS 3 Yrotation Xrotation Zrotation
    JOINT Chest4
    {
     OFFSET 0.000000 9.748205 0.000000
     CHANNELS 3 Yrotation Xrotation Zrotation
     JOINT Neck
     {
      OFFSET 0.000000 13.998479 0.000000
      CHANNELS 3 Yrotation Xrotation Zrotation
      JOINT Head
      {
       OFFSET 0.000000 9.082285 0.051121
       CHANNELS 3 Yrotation Xrotation Zrotation
       End Site
       {
        OFFSET 0.000000 17.246134 0.026702
       }
      }
     }
     JOINT RightCollar
     {
      OFFSET -3.284495 7.824262 0.000000
      CHANNELS 3 Yrotation Xrotation Zrotation
      JOINT RightShoulder
      {
       OFFSET -15.534540 0.000000 0.000000
       CHANNELS 3 Yrotation Xrotation Zrotation
       JOINT RightElbow
       {
        OFFSET 0.000000 -28.251216 0.000000
        CHANNELS 3 Yrotation Xrotation Zrotation
        JOINT RightWrist
        {
         OFFSET 0.000000 -23.418114 0.012537
         CHANNELS 3 Yrotation Xrotation Zrotation
         End Site
         {
          OFFSET 0.000000 -17.723959 0.000000
         }
        }
       }
      }
     }
     JOINT LeftCollar
     {
      OFFSET 3.284495 7.824262 0.000000
      CHANNELS 3 Yrotation Xrotation Zrotation
      JOINT LeftShoulder
      {
       OFFSET 15.534540 0.000000 0.000000
       CHANNELS 3 Yrotation Xrotation Zrotation
       JOINT LeftElbow
       {
        OFFSET 0.000000 -28.251216 0.000000
        CHANNELS 3 Yrotation Xrotation Zrotation
        JOINT LeftWrist
        {
         OFFSET 0.000000 -23.418114 0.012537
         CHANNELS 3 Yrotation Xrotation Zrotation
         End Site
         {
          OFFSET 0.000000 -17.723959 0.000000
         }
        }
       }
      }
     }
    }
   }
  }
 }
 JOINT RightHip
 {
  OFFSET -8.142657 0.057990 0.005917
  CHANNELS 3 Yrotation Xrotation Zrotation
  JOINT RightKnee
  {
   OFFSET 0.000000 -49.716894 0.008478
   CHANNELS 3 Yrotation Xrotation Zrotation
   JOINT RightAnkle
   {
    OFFSET 0.000000 -43.994153 0.004166
    CHANNELS 3 Yrotation Xrotation Zrotation
    JOINT RightToe
    {
     OFFSET 0.000000 -7.619154 17.822051
     CHANNELS 3 Yrotation Xrotation Zrotation
     End Site
     {
      OFFSET 0.000000 -1.595627 7.159905
     }
    }
   }
  }
 }
 JOINT LeftHip
 {
  OFFSET 8.142657 0.057990 0.005917
  CHANNELS 3 Yrotation Xrotation Zrotation
  JOINT LeftKnee
  {
   OFFSET 0.000000 -49.716894 0.008478
   CHANNELS 3 Yrotation Xrotation Zrotation
   JOINT LeftAnkle
   {
    OFFSET 0.000000 -43.994153 0.004166
    CHANNELS 3 Yrotation Xrotation Zrotation
    JOINT LeftToe
    {
     OFFSET 0.000000 -7.619154 17.822051
     CHANNELS 3 Yrotation Xrotation Zrotation
     End Site
     {
      OFFSET 0.000000 -1.595627 7.159905
     }
    }
   }
  }
 }
}
MOTION
Frames: 8
Frame Time: 0.008333
247.817612 57.391657 255.272905 -52.176986 -53.178707 0.808030 -3.489545 22.323375 -2.578603 -1.432720 9.916675 -1.365490 -1.432720 9.916675 -1.365490 -1.049490 7.440788 -0.998095 -8.793769 16.104635 -2.229364 -15.550569 -6.075554 -0.986333 -0.141878 9.812281 12.275416 30.325016 -22.660277 -23.752361 8.732561 -37.719988 6.915503 26.956574 -8.708430 -19.902397 -0.861271 10.029979 -11.337804 -17.413436 -22.589915 21.660349 -3.882105 -59.779610 25.344756 -41.789833 -24.519659 -21.466755 -16.367438 -22.357949 -5.049940 -10.795098 34.459317 -14.903081 5.025286 29.075692 6.394385 -0.612914 1.291342 -0.267621 18.994885 -30.560152 2.840954 91.624281 89.010763 87.369712 -29.506934 -6.502418 -21.662605 -0.146999 -0.162767 -0.064283
247.819627 57.393649 255.274377 -52.174877 -53.172972 0.813297 -3.497206 22.328624 -2.582645 -1.436322 9.919816 -1.366256 -1.436322 9.919816 -1.366256 -1.052164 7.443153 -0.998600 -8.782449 16.098800 -2.235038 -15.527846 -6.087802 -1.000197 -0.135333 9.793887 12.273109 30.336415 -22.661944 -23.758060 8.723870 -37.716858 6.912156 26.953056 -8.717531 -19.897528 -0.852959 10.012925 -11.344407 -17.424519 -22.588923 21.662961 -3.769942 -59.724453 25.239683 -41.837585 -24.558432 -21.401519 -16.363521 -22.368386 -5.057434 -10.795883 34.462499 -14.903954 5.036232 29.080317 6.404620 -0.616639 1.286816 -0.268917 18.998809 -30.561336 2.827109 91.403000 89.006399 87.150040 -29.503865 -6.501675 -21.666337 -0.147159 -0.163680 -0.063152
247.829114 57.348732 255.290203 -52.141775 -53.196773 0.888334 -3.563959 22.352782 -2.688210 -1.439173 9.920340 -1.364879 -1.439173 9.920340 -1.364879 -1.054318 7.443549 -0.997521 -8.774225 16.096001 -2.245329 -15.509020 -6.094715 -1.021851 -0.131135 9.787082 12.263476 30.354447 -22.657059 -23.767104 8.703417 -37.712828 6.910160 26.953890 -8.722715 -19.898526 -0.855610 10.007830 -11.360836 -17.421971 -22.589593 21.670924 -3.771943 -59.729403 25.205749 -41.841939 -24.538969 -21.379500 -16.344288 -22.367637 -5.171561 -10.795017 34.455858 -14.907543 4.977135 29.179206 6.350089 -0.545165 1.194029 -0.237850 19.032300 -30.519565 2.707837 91.838173 88.985086 87.574765 -29.509434 -6.494162 -21.660105 -0.142324 -0.162236 -0.060919
247.830566 57.337154 255.290292 -52.150709 -53.195856 0.903325 -3.569202 22.354624 -2.696536 -1.440944 9.921241 -1.365714 -1.440944 9.921241 -1.365714 -1.055626 7.444231 -0.998114 -8.764915 16.098086 -2.253493 -15.488642 -6.092439 -1.040471 -0.118151 9.779682 12.259927 30.359158 -22.659093 -23.773125 8.692512 -37.712519 6.915434 26.951942 -8.723487 -19.900837 -0.851627 10.005952 -11.368085 -17.428373 -22.587223 21.682864 -3.650693 -59.678955 25.085162 -41.899052 -24.581043 -21.306251 -16.334762 -22.370687 -5.177355 -10.799559 34.454821 -14.909724 4.969984 29.189608 6.340819 -0.535024 1.184999 -0.233449 19.040863 -30.522190 2.699618 92.015409 88.991845 87.747198 -29.505577 -6.490257 -21.656429 -0.140730 -0.163601 -0.060905
247.829118 57.341458 255.285661 -52.143627 -53.196218 0.880598 -3.564805 22.361601 -2.675579 -1.441322 9.923151 -1.364420 -1.441322 9.923151 -1.364420 -1.055925 7.445661 -0.997134 -8.762029 16.097931 -2.259855 -15.480992 -6.093635 -1.053255 -0.106781 9.770463 12.261007 30.348464 -22.667396 -23.782411 8.683907 -37.706769 6.917744 26.956332 -8.730464 -19.892303 -0.871485 9.997458 -11.376571 -17.419678 -22.592875 21.694129 -3.657432 -59.674483 25.057743 -41.904282 -24.572830 -21.281718 -16.346317 -22.368169 -5.154394 -10.798393 34.457264 -14.905663 4.952746 29.172077 6.324136 -0.527865 1.204210 -0.230151 19.028337 -30.527259 2.720794 91.938152 88.994714 87.671879 -29.505277 -6.488834 -21.655353 -0.141257 -0.163825 -0.062321
247.826326 57.341229 255.275383 -52.189476 -53.162240 0.861819 -3.513202 22.338887 -2.612490 -1.440568 9.925317 -1.361320 -1.440568 9.925317 -1.361320 -1.055406 7.447277 -0.994821 -8.758516 16.096420 -2.267951 -15.471634 -6.097573 -1.069326 -0.103513 9.760336 12.260555 30.338010 -22.674752 -23.789213 8.685231 -37.705539 6.918904 26.951342 -8.732255 -19.886041 -0.880199 9.988300 -11.384076 -17.421465 -22.595819 21.693405 -3.570017 -59.622084 24.968152 -41.953138 -24.615732 -21.217152 -16.345037 -22.387732 -5.088887 -10.795330 34.458362 -14.897239 4.998200 29.147214 6.361304 -0.569671 1.227468 -0.249026 19.031325 -30.582870 2.774067 92.541367 89.004365 88.280799 -29.500156 -6.496478 -21.656729 -0.143347 -0.161267 -0.062853
247.826563 57.346689 255.274562 -52.180436 -53.165504 0.846090 -3.517603 22.347951 -2.604897 -1.441886 9.927179 -1.360217 -1.441886 9.927179 -1.360217 -1.056404 7.448674 -0.993969 -8.752052 16.096483 -2.275158 -15.457015 -6.098715 -1.084956 -0.091607 9.748708 12.261135 30.327594 -22.675873 -23.794426 8.677639 -37.709977 6.926339 26.956907 -8.741735 -19.877102 -0.878521 9.983517 -11.385679 -17.418569 -22.599906 21.689274 -3.604455 -59.622386 24.961280 -41.953284 -24.594136 -21.189981 -16.357307 -22.385541 -5.075187 -10.803223 34.459798 -14.907725 4.993723 29.134809 6.356278 -0.563610 1.239742 -0.248534 19.017830 -30.580576 2.784943 92.389320 89.009116 88.127220 -29.497001 -6.492237 -21.656121 -0.145419 -0.163042 -0.063236
247.828064 57.351323 255.273997 -52.172931 -53.164649 0.835230 -3.514572 22.351720 -2.597245 -1.440664 9.928265 -1.358997 -1.440664 9.928265 -1.358997 -1.055507 7.449482 -0.993073 -8.750574 16.099206 -2.281391 -15.451853 -6.094469 -1.097310 -0.096294 9.741376 12.261436 30.320279 -22.680172 -23.793350 8.675748 -37.712633 6.931481 26.955791 -8.745032 -19.874442 -0.890273 9.983960 -11.386089 -17.414884 -22.610036 21.691309 -3.519050 -59.562237 24.866330 -42.004355 -24.635022 -21.118110 -16.365636 -22.386724 -5.069634 -10.806009 34.459106 -14.909020 4.995400 29.124923 6.357729 -0.565988 1.250432 -0.250718 19.011042 -30.581269 2.786783 92.160605 89.007598 87.899570 -29.497589 -6.485317 -21.654372 -0.146689 -0.165933 -0.064826
